<svg xmlns="http://www.w3.org/2000/svg" version="1.1" xmlns:xlink="http://www.w3.org/1999/xlink" xmlns:svgjs="http://svgjs.dev/svgjs" width="2000" height="2075" viewBox="0 0 2000 2075"><g transform="matrix(1,0,0,1,-0.9361008180354702,0.8416322818140998)"><svg viewBox="0 0 238 247" data-background-color="#ffffff" preserveAspectRatio="xMidYMid meet" height="2075" width="2000" xmlns="http://www.w3.org/2000/svg" xmlns:xlink="http://www.w3.org/1999/xlink"><g id="tight-bounds" transform="matrix(1,0,0,1,0.11139599734622152,-0.09997365579206985)"><svg viewBox="0 0 237.77711286821705 247.2" height="247.2" width="237.77711286821705"><g><svg viewBox="0 0 237.77711286821705 247.2" height="247.2" width="237.77711286821705"><g><svg viewBox="0 0 237.77711286821705 247.2" height="247.2" width="237.77711286821705"><g id="textblocktransform"><svg viewBox="0 0 237.77711286821705 247.2" height="247.2" width="237.77711286821705" id="textblock"><g><svg viewBox="0 0 237.77711286821705 247.2" height="247.2" width="237.77711286821705"><path d="M237.22 53.02C236.103 27.36 232.917 20.227 232.917 20.227 223.136-6.202 210.929-0.506 199.963 3.292 180.602 3.446 161.319 9.091 142.003 12.119 101.459 12.581 60.568 4.986 20.225 23.717 16.436 29.464-3.931 24.846 0.674 56.304 1.881 69.39 6.286 83.913 6.151 95.922 6.755 98.026 7.593 93.202 7.951 96.23 9.203 104.39 11.249 100.541 12.926 105.365 10.589 118.246 12.266 128.971 13.865 140.21 11.048 143.135 7.437 141.749 5.816 151.449 5.648 158.479 4.743 157.145 3.748 156.837 3.022 156.632 1.557 157.402 1.803 159.608 2.641 167.152-0.958 171.514 1.3 178.904-0.254 186.91 2.373 193.838 2.015 202.511 1.971 204.255 2.217 205.744 2.608 206.154 4.341 208.361 1.814 212.672 2.083 217.342 19.856 249.262 39.139 227.195 57.349 241.872 62.077 231.608 58.522 245.516 60.411 243.36 61.887 240.846 62.96 251.263 64.626 245.362 64.883 243.668 64.492 239.665 65.408 240.435 65.889 240.846 66.314 240.743 66.381 238.382 66.481 234.841 65.598 237.048 65.364 235.201 67.901 225.861 67.275 248.081 69.656 247.158 69.544 244.438 68.851 240.538 70.271 241.051 71.679 237.151 71.724 233.918 72.976 242.693 73.021 244.592 73.244 245.926 73.602 246.85 77.514 237.305 81.405 250.237 85.507 245.926 88.022 241.205 90.437 248.492 92.985 246.696 93.88 245.259 94.785 242.693 95.646 247.004 106.187 247.928 117.421 244.079 127.415 247.158 154.12 241.41 182.659 249.518 210.817 241.923 217.457 238.998 224.354 234.841 230.826 231.506 230.826 231.506 236.069 222.371 236.069 181.316S237.187 145.393 237.355 112.703C237.522 80.013 238.305 78.679 237.187 53.02Z" opacity="1" fill="#ca3433" data-fill-palette-color="tertiary"></path><g transform="matrix(1,0,0,1,55.768319999999996,26.230666666666668)"><svg width="126.24047286821705" viewBox="4.25 -34.4 22.3 34.4" height="194.73866666666666" data-palette-color="#ffffff"><path d="M11.35-34.4Q15.8-34.4 19.1-33.05 22.4-31.7 24.48-27.95 26.55-24.2 26.55-17.4L26.55-17.4Q26.55-7.7 22.43-3.85 18.3 0 12 0L12 0 4.25 0 4.25-34.4 11.35-34.4ZM12.05-30.75L8.9-30.75 8.9-3.6 12.3-3.6Q16.6-3.6 19.15-6.58 21.7-9.55 21.7-17.4L21.7-17.4Q21.7-22.9 20.38-25.85 19.05-28.8 16.98-29.78 14.9-30.75 12.05-30.75L12.05-30.75Z" opacity="1" transform="matrix(1,0,0,1,0,0)" fill="#ffffff" class="wordmark-text-0" data-fill-palette-color="quaternary" id="text-0"></path></svg></g></svg></g></svg></g></svg></g><g></g></svg></g><defs></defs></svg><rect width="237.77711286821705" height="247.2" fill="none" stroke="none" visibility="hidden"></rect></g></svg></g></svg>